<?xml version="1.0" standalone="no"?>
 <!DOCTYPE svg PUBLIC "-//W3C//DTD SVG 1.1//EN" 
 "http://www.w3.org/Graphics/SVG/1.1/DTD/svg11.dtd"> 
<svg xmlns="http://www.w3.org/2000/svg" version="1.1" 
    width="6.32968cm" height="5.90042cm" viewBox="0 0 24920 23230 ">
<title>SVG Picture created as bph-B.Cu.svg date 2016/09/07 08:33:13 </title>
  <desc>Picture generated by PCBNEW </desc>
<g style="fill:#000000; fill-opacity:1;stroke:#000000; stroke-opacity:1;
stroke-linecap:round; stroke-linejoin:round; "
 transform="translate(0 0) scale(1 1)">
</g>
<g style="fill:#000000; fill-opacity:0.0; 
stroke:#000000; stroke-width:-0.000393701; stroke-opacity:1; 
stroke-linecap:round; stroke-linejoin:round;">
</g>
<g style="fill:#000000; fill-opacity:0.0; 
stroke:#000000; stroke-width:59.0551; stroke-opacity:1; 
stroke-linecap:round; stroke-linejoin:round;">
<path d="M22303 2559
L2618 2559
" />
<path d="M22303 22244
L22303 2559
" />
<path d="M2618 22244
L22303 22244
" />
<path d="M2618 2559
L2618 22244
" />
<path d="M4586 22244
L18366 22244
" />
<path d="M18366 2559
L4586 2559
" />
<path d="M18366 2559
L18366 22244
" />
<path d="M4586 22244
L4586 2559
" />
</g>
<g style="fill:#000000; fill-opacity:0.0; 
stroke:#000000; stroke-width:0; stroke-opacity:1; 
stroke-linecap:round; stroke-linejoin:round;">
</g>
<g style="fill:#000000; fill-opacity:1.0; 
stroke:#000000; stroke-width:0; stroke-opacity:1; 
stroke-linecap:round; stroke-linejoin:round;">
<polyline style="fill-rule:evenodd;"
points="8367,7955
7817,7955
7817,7605
8367,7605
8367,7955
" /> 
<polyline style="fill-rule:evenodd;"
points="8367,7205
7817,7205
7817,6855
8367,6855
8367,7205
" /> 
<polyline style="fill-rule:evenodd;"
points="15642,17880
15642,18430
15292,18430
15292,17880
15642,17880
" /> 
<polyline style="fill-rule:evenodd;"
points="14892,17880
14892,18430
14542,18430
14542,17880
14892,17880
" /> 
<polyline style="fill-rule:evenodd;"
points="16502,9801
17683,9801
17683,10510
16502,10510
16502,9801
" /> 
</g>
<g style="fill:#000000; fill-opacity:1.0; 
stroke:#000000; stroke-width:709; stroke-opacity:1; 
stroke-linecap:round; stroke-linejoin:round;">
</g>
<g style="fill:#000000; fill-opacity:0.0; 
stroke:#000000; stroke-width:709; stroke-opacity:1; 
stroke-linecap:round; stroke-linejoin:round;">
<path d="M17328 11155
L16856 11155
" />
</g>
<g style="fill:#000000; fill-opacity:0.0; 
stroke:#000000; stroke-width:0; stroke-opacity:1; 
stroke-linecap:round; stroke-linejoin:round;">
</g>
<g style="fill:#000000; fill-opacity:1.0; 
stroke:#000000; stroke-width:0; stroke-opacity:1; 
stroke-linecap:round; stroke-linejoin:round;">
<polyline style="fill-rule:evenodd;"
points="17683,14260
16502,14260
16502,13551
17683,13551
17683,14260
" /> 
</g>
<g style="fill:#000000; fill-opacity:1.0; 
stroke:#000000; stroke-width:709; stroke-opacity:1; 
stroke-linecap:round; stroke-linejoin:round;">
</g>
<g style="fill:#000000; fill-opacity:0.0; 
stroke:#000000; stroke-width:709; stroke-opacity:1; 
stroke-linecap:round; stroke-linejoin:round;">
<path d="M16856 12905
L17328 12905
" />
<path d="M5708 5039
L6180 5039
" />
<path d="M5708 9764
L6180 9764
" />
<path d="M10551 9764
L11023 9764
" />
<path d="M11574 7166
L11574 7638
" />
<path d="M10551 5039
L11023 5039
" />
</g>
<g style="fill:#000000; fill-opacity:0.0; 
stroke:#000000; stroke-width:0; stroke-opacity:1; 
stroke-linecap:round; stroke-linejoin:round;">
</g>
<g style="fill:#000000; fill-opacity:1.0; 
stroke:#000000; stroke-width:0; stroke-opacity:1; 
stroke-linecap:round; stroke-linejoin:round;">
<polyline style="fill-rule:evenodd;"
points="15947,19565
15947,20746
15238,20746
15238,19565
15947,19565
" /> 
</g>
<g style="fill:#000000; fill-opacity:1.0; 
stroke:#000000; stroke-width:709; stroke-opacity:1; 
stroke-linecap:round; stroke-linejoin:round;">
</g>
<g style="fill:#000000; fill-opacity:0.0; 
stroke:#000000; stroke-width:709; stroke-opacity:1; 
stroke-linecap:round; stroke-linejoin:round;">
<path d="M14592 20391
L14592 19919
" />
<path d="M13592 20391
L13592 19919
" />
<path d="M12592 20391
L12592 19919
" />
<path d="M11592 20391
L11592 19919
" />
</g>
<g style="fill:#000000; fill-opacity:0.0; 
stroke:#000000; stroke-width:0; stroke-opacity:1; 
stroke-linecap:round; stroke-linejoin:round;">
</g>
<g style="fill:#000000; fill-opacity:1.0; 
stroke:#000000; stroke-width:0; stroke-opacity:1; 
stroke-linecap:round; stroke-linejoin:round;">
<polyline style="fill-rule:evenodd;"
points="7447,16815
7447,17996
6738,17996
6738,16815
7447,16815
" /> 
</g>
<g style="fill:#000000; fill-opacity:1.0; 
stroke:#000000; stroke-width:709; stroke-opacity:1; 
stroke-linecap:round; stroke-linejoin:round;">
</g>
<g style="fill:#000000; fill-opacity:0.0; 
stroke:#000000; stroke-width:709; stroke-opacity:1; 
stroke-linecap:round; stroke-linejoin:round;">
<path d="M6092 17641
L6092 17169
" />
</g>
<g style="fill:#000000; fill-opacity:0.0; 
stroke:#000000; stroke-width:0; stroke-opacity:1; 
stroke-linecap:round; stroke-linejoin:round;">
</g>
<g style="fill:#000000; fill-opacity:1.0; 
stroke:#000000; stroke-width:0; stroke-opacity:1; 
stroke-linecap:round; stroke-linejoin:round;">
<polyline style="fill-rule:evenodd;"
points="8988,17996
8988,16815
9697,16815
9697,17996
8988,17996
" /> 
</g>
<g style="fill:#000000; fill-opacity:1.0; 
stroke:#000000; stroke-width:709; stroke-opacity:1; 
stroke-linecap:round; stroke-linejoin:round;">
</g>
<g style="fill:#000000; fill-opacity:0.0; 
stroke:#000000; stroke-width:709; stroke-opacity:1; 
stroke-linecap:round; stroke-linejoin:round;">
<path d="M10342 17169
L10342 17641
" />
</g>
<g style="fill:#000000; fill-opacity:0.0; 
stroke:#000000; stroke-width:1181; stroke-opacity:1; 
stroke-linecap:round; stroke-linejoin:round;">
<path d="M6055 20511
L6055 21299
" />
<path d="M7629 20511
L7629 21299
" />
<path d="M12129 13299
L12129 12511
" />
<path d="M10555 13299
L10555 12511
" />
<path d="M16629 4299
L16629 3511
" />
<path d="M15055 4299
L15055 3511
" />
</g>
<g style="fill:#000000; fill-opacity:0.0; 
stroke:#000000; stroke-width:0; stroke-opacity:1; 
stroke-linecap:round; stroke-linejoin:round;">
</g>
<g style="fill:#000000; fill-opacity:1.0; 
stroke:#000000; stroke-width:0; stroke-opacity:1; 
stroke-linecap:round; stroke-linejoin:round;">
<polyline style="fill-rule:evenodd;"
points="13638,9646
13638,8465
14347,8465
14347,9646
13638,9646
" /> 
</g>
<g style="fill:#000000; fill-opacity:1.0; 
stroke:#000000; stroke-width:709; stroke-opacity:1; 
stroke-linecap:round; stroke-linejoin:round;">
</g>
<g style="fill:#000000; fill-opacity:0.0; 
stroke:#000000; stroke-width:709; stroke-opacity:1; 
stroke-linecap:round; stroke-linejoin:round;">
<path d="M14992 8819
L14992 9291
" />
<path d="M15992 8819
L15992 9291
" />
</g>
<g style="fill:#000000; fill-opacity:0.0; 
stroke:#000000; stroke-width:0; stroke-opacity:1; 
stroke-linecap:round; stroke-linejoin:round;">
</g>
<g style="fill:#000000; fill-opacity:1.0; 
stroke:#000000; stroke-width:0; stroke-opacity:1; 
stroke-linecap:round; stroke-linejoin:round;">
<polyline style="fill-rule:evenodd;"
points="17183,18510
16002,18510
16002,17801
17183,17801
17183,18510
" /> 
</g>
<g style="fill:#000000; fill-opacity:1.0; 
stroke:#000000; stroke-width:709; stroke-opacity:1; 
stroke-linecap:round; stroke-linejoin:round;">
</g>
<g style="fill:#000000; fill-opacity:0.0; 
stroke:#000000; stroke-width:709; stroke-opacity:1; 
stroke-linecap:round; stroke-linejoin:round;">
<path d="M16356 17155
L16828 17155
" />
<path d="M16356 16155
L16828 16155
" />
<path d="M16356 15155
L16828 15155
" />
<path d="M13356 15155
L13828 15155
" />
<path d="M13356 16155
L13828 16155
" />
<path d="M13356 17155
L13828 17155
" />
<path d="M13356 18155
L13828 18155
" />
</g>
<g style="fill:#000000; fill-opacity:0.0; 
stroke:#000000; stroke-width:0; stroke-opacity:1; 
stroke-linecap:round; stroke-linejoin:round;">
</g>
<g style="fill:#000000; fill-opacity:1.0; 
stroke:#000000; stroke-width:0; stroke-opacity:1; 
stroke-linecap:round; stroke-linejoin:round;">
<polyline style="fill-rule:evenodd;"
points="15867,12205
15317,12205
15317,11855
15867,11855
15867,12205
" /> 
<polyline style="fill-rule:evenodd;"
points="15867,11455
15317,11455
15317,11105
15867,11105
15867,11455
" /> 
<polyline style="fill-rule:evenodd;"
points="14317,11105
14867,11105
14867,11455
14317,11455
14317,11105
" /> 
<polyline style="fill-rule:evenodd;"
points="14317,11855
14867,11855
14867,12205
14317,12205
14317,11855
" /> 
<polyline style="fill-rule:evenodd;"
points="7191,12746
7191,11565
7782,11565
7782,12746
7191,12746
" /> 
</g>
<g style="fill:#000000; fill-opacity:1.0; 
stroke:#000000; stroke-width:591; stroke-opacity:1; 
stroke-linecap:round; stroke-linejoin:round;">
</g>
<g style="fill:#000000; fill-opacity:0.0; 
stroke:#000000; stroke-width:591; stroke-opacity:1; 
stroke-linecap:round; stroke-linejoin:round;">
<path d="M6698 11860
L6698 12450
" />
</g>
<g style="fill:#000000; fill-opacity:0.0; 
stroke:#000000; stroke-width:0; stroke-opacity:1; 
stroke-linecap:round; stroke-linejoin:round;">
</g>
<g style="fill:#000000; fill-opacity:1.0; 
stroke:#000000; stroke-width:0; stroke-opacity:1; 
stroke-linecap:round; stroke-linejoin:round;">
<polyline style="fill-rule:evenodd;"
points="15617,13955
15067,13955
15067,13605
15617,13605
15617,13955
" /> 
<polyline style="fill-rule:evenodd;"
points="15617,13205
15067,13205
15067,12855
15617,12855
15617,13205
" /> 
</g>
<g style="fill:#000000; fill-opacity:1.0; 
stroke:#000000; stroke-width:709; stroke-opacity:1; 
stroke-linecap:round; stroke-linejoin:round;">
</g>
<g style="fill:#000000; fill-opacity:0.0; 
stroke:#000000; stroke-width:709; stroke-opacity:1; 
stroke-linecap:round; stroke-linejoin:round;">
<path d="M12842 9216
L12842 8744
" />
</g>
<g style="fill:#000000; fill-opacity:0.0; 
stroke:#000000; stroke-width:0; stroke-opacity:1; 
stroke-linecap:round; stroke-linejoin:round;">
</g>
<g style="fill:#000000; fill-opacity:1.0; 
stroke:#000000; stroke-width:0; stroke-opacity:1; 
stroke-linecap:round; stroke-linejoin:round;">
<polyline style="fill-rule:evenodd;"
points="13197,5240
13197,6421
12488,6421
12488,5240
13197,5240
" /> 
</g>
<g style="fill:#000000; fill-opacity:1.0; 
stroke:#000000; stroke-width:196.85; stroke-opacity:1; 
stroke-linecap:round; stroke-linejoin:round;">
</g>
<g style="fill:#000000; fill-opacity:0.0; 
stroke:#000000; stroke-width:196.85; stroke-opacity:1; 
stroke-linecap:round; stroke-linejoin:round;">
<path d="M13592 18155
L14717 18155
" />
<path d="M10787 5039
L12001 5039
" />
<path d="M9342 17405
L9342 20905
" />
<path d="M14592 21155
L14592 20155
" />
<path d="M14342 21405
L14592 21155
" />
<path d="M9842 21405
L14342 21405
" />
<path d="M9342 20905
L9842 21405
" />
<path d="M16592 18155
L16592 19155
" />
<path d="M16592 19155
L14592 19155
" />
<path d="M14592 19155
L14592 20155
" />
<path d="M6698 12155
L6698 14761
" />
<path d="M6698 14761
L9342 17405
" />
<path d="M6698 12155
L6698 10511
" />
<path d="M7217 7030
L8092 7030
" />
<path d="M7092 7155
L7217 7030
" />
<path d="M7092 10117
L7092 7155
" />
<path d="M6698 10511
L7092 10117
" />
<path d="M8092 7030
L8092 6655
" />
<path d="M8228 6519
L9342 6519
" />
<path d="M8092 6655
L8228 6519
" />
<path d="M10787 5039
L9708 5039
" />
<path d="M9708 5039
L9342 5405
" />
<path d="M9342 5405
L9342 6519
" />
<path d="M16592 18155
L15467 18155
" />
<path d="M12001 5039
L12842 5880
" />
</g>
<g style="fill:#000000; fill-opacity:0.0; 
stroke:#000000; stroke-width:118.11; stroke-opacity:1; 
stroke-linecap:round; stroke-linejoin:round;">
<path d="M17092 11155
L15717 11155
" />
<path d="M15717 11155
L15592 11280
" />
<path d="M17092 12905
L15467 12905
" />
<path d="M15467 12905
L15342 13030
" />
</g>
<g style="fill:#000000; fill-opacity:0.0; 
stroke:#000000; stroke-width:196.85; stroke-opacity:1; 
stroke-linecap:round; stroke-linejoin:round;">
<path d="M12108 9764
L12842 9030
" />
<path d="M13992 9055
L12867 9055
" />
<path d="M12867 9055
L12842 9030
" />
<path d="M10787 9764
L12108 9764
" />
<path d="M10842 9655
L10923 9736
" />
</g>
<g style="fill:#000000; fill-opacity:0.0; 
stroke:#000000; stroke-width:393.701; stroke-opacity:1; 
stroke-linecap:round; stroke-linejoin:round;">
<path d="M5944 5039
L5944 4553
" />
<path d="M7092 3405
L14555 3405
" />
<path d="M5944 4553
L7092 3405
" />
<path d="M14555 3405
L15055 3905
" />
<path d="M11574 7402
L15595 7402
" />
<path d="M16629 6368
L16629 3905
" />
<path d="M15595 7402
L16629 6368
" />
</g>
<g style="fill:#000000; fill-opacity:0.0; 
stroke:#000000; stroke-width:118.11; stroke-opacity:1; 
stroke-linecap:round; stroke-linejoin:round;">
<path d="M16592 15155
L17342 15155
" />
<path d="M17592 20155
L15592 20155
" />
<path d="M17592 15405
L17592 20155
" />
<path d="M17342 15155
L17592 15405
" />
<path d="M13592 17155
L13092 17155
" />
<path d="M13092 17155
L12592 17655
" />
<path d="M12592 17655
L12592 20155
" />
<path d="M11592 20155
L11592 16905
" />
<path d="M12342 16155
L13592 16155
" />
<path d="M11592 16905
L12342 16155
" />
</g>
<g style="fill:#000000; fill-opacity:0.0; 
stroke:#000000; stroke-width:393.701; stroke-opacity:1; 
stroke-linecap:round; stroke-linejoin:round;">
<path d="M7629 20905
L7629 17942
" />
<path d="M7629 17942
L7092 17405
" />
<path d="M7342 20618
L7629 20905
" />
<path d="M6055 20905
L6055 17442
" />
<path d="M6055 17442
L6092 17405
" />
</g>
<g style="fill:#000000; fill-opacity:0.0; 
stroke:#000000; stroke-width:118.11; stroke-opacity:1; 
stroke-linecap:round; stroke-linejoin:round;">
<path d="M12129 12905
L12129 14692
" />
<path d="M12592 15155
L13592 15155
" />
<path d="M12129 14692
L12592 15155
" />
<path d="M14992 9055
L14992 9755
" />
<path d="M14592 10155
L14592 11280
" />
<path d="M14992 9755
L14592 10155
" />
<path d="M16592 17155
L14842 17155
" />
<path d="M14592 16905
L14592 12030
" />
<path d="M14842 17155
L14592 16905
" />
<path d="M14592 12030
L15592 12030
" />
<path d="M16592 16155
L15842 16155
" />
<path d="M15342 15655
L15342 13780
" />
<path d="M15842 16155
L15342 15655
" />
</g>
<g style="fill:#000000; fill-opacity:1.0; 
stroke:#000000; stroke-width:100; stroke-opacity:1; 
stroke-linecap:round; stroke-linejoin:round;">
<polyline style="fill-rule:evenodd;"
points="14377,2883
7092,2883
6892,2922
6723,3036
5575,4183
5461,4353
5451,4406
5430,4410
5209,4558
5062,4778
5010,5039
5062,5299
5209,5519
5430,5667
5690,5719
6198,5719
6458,5667
6679,5519
6826,5299
6878,5039
6826,4778
6679,4558
6679,4557
7308,3927
14139,3927
14139,4325
14209,4675
14407,4972
14704,5171
15055,5241
15406,5171
15703,4972
15842,4764
15981,4972
16107,5056
16107,6152
15379,6879
12197,6879
12055,6667
11834,6519
11574,6468
11314,6519
11093,6667
10946,6887
10894,7148
10894,7656
10946,7916
11093,8136
11314,8284
11574,8336
11834,8284
12055,8136
12197,7924
15595,7924
15795,7884
15965,7771
16998,6737
17112,6568
17151,6368
17151,5056
17277,4972
17475,4675
17545,4325
17545,3485
17475,3135
17277,2838
18086,2838
18086,21964
8282,21964
8475,21675
8545,21325
8545,20485
8475,20135
8277,19838
8151,19754
8151,17942
8112,17742
7998,17573
7778,17353
7778,16815
7756,16694
7684,16583
7576,16509
7447,16483
6738,16483
6617,16505
6506,16577
6483,16610
6352,16523
6092,16471
5832,16523
5611,16670
5464,16891
5412,17151
5412,17659
5464,17919
5533,18022
5533,19754
5407,19838
5209,20135
5139,20485
5139,21325
5209,21675
5402,21964
4866,21964
4866,9764
5087,9764
5133,9995
5264,10191
5460,10322
5692,10368
6197,10368
6411,10325
6376,10378
6376,10378
6350,10511
6350,10511
6350,11433
6312,11458
6194,11635
6153,11844
6153,12466
6194,12675
6312,12852
6350,12877
6350,14761
6350,14761
6371,14869
6376,14894
6396,14924
6452,15007
8733,17288
8733,17996
8750,18088
8805,18173
8888,18230
8988,18250
8994,18250
8994,20905
8994,20905
9013,21000
9020,21038
9065,21105
9096,21151
9596,21651
9596,21651
9709,21727
9842,21753
9842,21753
14342,21753
14342,21753
14453,21731
14475,21727
14588,21651
14588,21651
14838,21401
14838,21401
14914,21288
14914,21288
14940,21155
14940,21155
14940,20888
15004,20845
15055,20923
15138,20980
15238,21000
15947,21000
16039,20983
16124,20928
16181,20845
16201,20746
16201,20464
17592,20464
17710,20441
17811,20374
17878,20273
17901,20155
17901,15405
17901,15405
17878,15287
17811,15186
17561,14936
17460,14869
17352,14848
17272,14728
17076,14597
16844,14551
16340,14551
16108,14597
15912,14728
15781,14924
15735,15155
15781,15386
15912,15582
16021,15655
15912,15728
15888,15764
15651,15527
15651,14204
15710,14192
15795,14138
15852,14054
15859,14018
16252,14018
16252,14309
16290,14401
16360,14471
16452,14510
16980,14510
17042,14447
17042,13955
17142,13955
17142,14447
17205,14510
17732,14510
17824,14471
17894,14401
17933,14309
17933,14018
17870,13955
17142,13955
17042,13955
16314,13955
16252,14018
15859,14018
15872,13955
15872,13605
15854,13512
15800,13427
15768,13405
15795,13388
15852,13304
15870,13214
16333,13214
16404,13320
16360,13339
16290,13409
16252,13501
16252,13793
16314,13855
17042,13855
17042,13847
17142,13847
17142,13855
17870,13855
17933,13793
17933,13501
17894,13409
17824,13339
17780,13320
17903,13136
17949,12905
17903,12674
17772,12478
17576,12347
17344,12301
16840,12301
16608,12347
16412,12478
16333,12596
15467,12596
15446,12600
15067,12600
14974,12618
14901,12665
14901,12454
14960,12442
15045,12388
15078,12339
15106,12339
15134,12383
15218,12440
15317,12460
15867,12460
15960,12442
16045,12388
16102,12304
16122,12205
16122,11855
16104,11762
16050,11677
16018,11655
16045,11638
16102,11554
16120,11464
16333,11464
16412,11582
16608,11713
16840,11760
17344,11760
17576,11713
17772,11582
17903,11386
17949,11155
17903,10924
17780,10740
17824,10721
17894,10651
17933,10559
17933,10268
17870,10205
17142,10205
17142,10213
17042,10213
17042,10205
16314,10205
16252,10268
16252,10559
16290,10651
16360,10721
16404,10740
16333,10846
15717,10846
15696,10850
15317,10850
15224,10868
15139,10922
15092,10992
15050,10927
14966,10870
14901,10857
14901,10283
15211,9974
15278,9873
15288,9823
15419,9735
15495,9622
15600,9754
15807,9869
15848,9878
15942,9831
15942,9105
16042,9105
16042,9831
16136,9878
16177,9869
16252,9827
16252,10043
16314,10105
17042,10105
17042,9613
17142,9613
17142,10105
17870,10105
17933,10043
17933,9751
17894,9659
17824,9589
17732,9551
17205,9551
17142,9613
17042,9613
16980,9551
16537,9551
16597,9341
16597,9105
16042,9105
15942,9105
15934,9105
15934,9005
15942,9005
15942,8279
16042,8279
16042,9005
16597,9005
16597,8769
16531,8541
16384,8356
16177,8241
16136,8232
16042,8279
15942,8279
15848,8232
15807,8241
15600,8356
15495,8488
15419,8375
15223,8244
14992,8198
14761,8244
14580,8365
14529,8287
14446,8230
14347,8210
13638,8210
13545,8227
13460,8282
13403,8365
13383,8465
13383,8469
13269,8300
13073,8169
12842,8123
12611,8169
12415,8300
12284,8496
12238,8728
12238,9142
11964,9415
11520,9415
11467,9336
11271,9205
11040,9159
10535,9159
10303,9205
10107,9336
9976,9532
9930,9764
9976,9995
10107,10191
10303,10322
10535,10368
11040,10368
11271,10322
11467,10191
11520,10112
12108,10112
12108,10112
12220,10090
12242,10085
12355,10010
12589,9776
12611,9791
12842,9837
13073,9791
13269,9660
13383,9491
13383,9646
13400,9738
13455,9823
13538,9880
13638,9900
14347,9900
14424,9886
14373,9936
14306,10037
14293,10105
14283,10155
14283,10857
14224,10868
14139,10922
14082,11006
14062,11105
14062,11455
14080,11548
14134,11633
14167,11655
14139,11672
14082,11756
14062,11855
14062,12205
14080,12298
14134,12383
14218,12440
14283,12453
14283,14744
14272,14728
14076,14597
13844,14551
13340,14551
13108,14597
12912,14728
12833,14846
12720,14846
12438,14564
12438,14102
12451,14100
12723,13918
12906,13645
12970,13323
12970,12487
12906,12165
12723,11893
12451,11710
12129,11646
11807,11710
11535,11893
11352,12165
11338,12240
11312,12143
11114,11881
10830,11715
10736,11690
10605,11735
10605,12855
10613,12855
10613,12955
10605,12955
10605,14075
10736,14120
10830,14095
11114,13929
11312,13667
11338,13570
11352,13645
11535,13918
11807,14100
11820,14102
11820,14692
11843,14810
11910,14911
12373,15374
12474,15441
12592,15464
12833,15464
12912,15582
13021,15655
12912,15728
12833,15846
12342,15846
12224,15869
12123,15936
11373,16686
11306,16787
11306,16787
11283,16905
11283,19396
11165,19475
11034,19671
10988,19903
10988,20407
11034,20639
11165,20835
11361,20966
11592,21012
11823,20966
12019,20835
12092,20726
12165,20835
12361,20966
12592,21012
12823,20966
13019,20835
13095,20722
13200,20854
13407,20969
13448,20978
13542,20931
13542,20205
13534,20205
13534,20105
13542,20105
13542,19379
13448,19332
13407,19341
13200,19456
13095,19588
13019,19475
12901,19396
12901,18553
13078,18694
13306,18760
13542,18760
13542,18205
13642,18205
13642,18760
13878,18760
14106,18694
14291,18547
14307,18517
14330,18572
14400,18642
14492,18680
14605,18680
14667,18618
14667,18205
13642,18205
13542,18205
13534,18205
13534,18105
13542,18105
13542,18097
13642,18097
13642,18105
14667,18105
14667,17693
14605,17630
14492,17630
14400,17668
14330,17738
14307,17793
14291,17763
14159,17658
14272,17582
14403,17386
14442,17192
14623,17374
14724,17441
14842,17464
14842,17464
15833,17464
15902,17567
15824,17618
15785,17675
15741,17645
15642,17625
15292,17625
15199,17643
15114,17697
15093,17728
15034,17668
14942,17630
14830,17630
14767,17693
14767,18105
14775,18105
14775,18205
14767,18205
14767,18618
14830,18680
14942,18680
15034,18642
15093,18583
15109,18608
15193,18665
15292,18685
15642,18685
15735,18667
15785,18635
15819,18687
15902,18744
16002,18764
16244,18764
16244,18807
14592,18807
14459,18833
14346,18909
14270,19022
14244,19155
14244,19422
14165,19475
14089,19588
13984,19456
13777,19341
13736,19332
13642,19379
13642,20105
13650,20105
13650,20205
13642,20205
13642,20931
13736,20978
13777,20969
13984,20854
14089,20722
14165,20835
14244,20888
14244,21011
14198,21057
9986,21057
9690,20761
9690,18250
9697,18250
9789,18233
9874,18178
9931,18095
9934,18083
9950,18104
10157,18219
10198,18228
10292,18181
10292,17455
10392,17455
10392,18181
10486,18228
10527,18219
10734,18104
10881,17919
10947,17691
10947,17455
10392,17455
10292,17455
10284,17455
10284,17355
10292,17355
10292,16629
10392,16629
10392,17355
10947,17355
10947,17119
10881,16891
10734,16706
10527,16591
10486,16582
10392,16629
10292,16629
10198,16582
10157,16591
9950,16706
9935,16725
9934,16722
9879,16637
9796,16580
9697,16560
8989,16560
7046,14617
7046,12955
7049,12957
7141,12996
7374,12996
7436,12933
7436,12205
7536,12205
7536,12933
7599,12996
7831,12996
7923,12957
7926,12955
9715,12955
9715,13349
9798,13667
9996,13929
10280,14095
10374,14120
10505,14075
10505,12955
9715,12955
7926,12955
7993,12887
8032,12795
8032,12461
9715,12461
9715,12855
10505,12855
10505,11735
10374,11690
10280,11715
9996,11881
9798,12143
9715,12461
8032,12461
8032,12268
7969,12205
7536,12205
7436,12205
7428,12205
7428,12105
7436,12105
7436,11377
7536,11377
7536,12105
7969,12105
8032,12043
8032,11515
7993,11423
7923,11353
7831,11315
7599,11315
7536,11377
7436,11377
7374,11315
7141,11315
7049,11353
7046,11355
7046,10655
7338,10363
7338,10363
7414,10250
7440,10117
7440,7893
7567,7893
7567,8005
7605,8097
7675,8167
7767,8205
7980,8205
8042,8143
8042,7830
8142,7830
8142,8143
8205,8205
8417,8205
8509,8167
8579,8097
8617,8005
8617,7893
8555,7830
8142,7830
8042,7830
7630,7830
7567,7893
7440,7893
7440,7378
7632,7378
7634,7383
7665,7404
7605,7463
7567,7555
7567,7668
7630,7730
8042,7730
8042,7722
8142,7722
8142,7730
8555,7730
8617,7668
8617,7555
8579,7463
8520,7404
8545,7388
8602,7304
8622,7205
8622,6867
9342,6867
9475,6841
9588,6765
9664,6652
9690,6519
9690,5549
9853,5387
10054,5387
10107,5466
10303,5597
10535,5643
11040,5643
11271,5597
11467,5466
11520,5387
11856,5387
12233,5763
12233,6421
12250,6513
12305,6598
12388,6655
12488,6675
13197,6675
13289,6658
13374,6603
13431,6520
13451,6421
13451,5240
13434,5147
13379,5062
13296,5005
13197,4985
12488,4985
12447,4992
12247,4792
12226,4778
12134,4717
12112,4712
12001,4690
12001,4690
11520,4690
11467,4611
11271,4480
11040,4434
10535,4434
10303,4480
10107,4611
10054,4690
9708,4690
9575,4717
9462,4792
9462,4792
9096,5159
9020,5272
9020,5272
8994,5405
8994,5405
8994,6171
8228,6171
8228,6171
8117,6193
8095,6197
7982,6273
7982,6273
7846,6409
7770,6522
7770,6522
7752,6612
7724,6618
7639,6672
7633,6682
7217,6682
7217,6682
7106,6704
7084,6708
6971,6784
6971,6784
6846,6909
6770,7022
6770,7022
6744,7155
6744,7155
6744,9515
6624,9336
6428,9205
6197,9159
5692,9159
5460,9205
5264,9336
5133,9532
5087,9764
4866,9764
4866,2838
14407,2838
14377,2883
" /> 
</g>
<g style="fill:#FFFFFF; fill-opacity:1.0; 
stroke:#FFFFFF; stroke-width:100; stroke-opacity:1; 
stroke-linecap:round; stroke-linejoin:round;">
</g>
<g style="fill:#FFFFFF; fill-opacity:1.0; 
stroke:#FFFFFF; stroke-width:0; stroke-opacity:1; 
stroke-linecap:round; stroke-linejoin:round;">
<circle cx="17092.5" cy="10155.5" r="197" /> 
</g>
<g style="fill:#FFFFFF; fill-opacity:1.0; 
stroke:#FFFFFF; stroke-width:39.3701; stroke-opacity:1; 
stroke-linecap:round; stroke-linejoin:round;">
</g>
<g style="fill:#FFFFFF; fill-opacity:1.0; 
stroke:#FFFFFF; stroke-width:0; stroke-opacity:1; 
stroke-linecap:round; stroke-linejoin:round;">
<circle cx="17092.5" cy="11155.5" r="197" /> 
</g>
<g style="fill:#FFFFFF; fill-opacity:1.0; 
stroke:#FFFFFF; stroke-width:39.3701; stroke-opacity:1; 
stroke-linecap:round; stroke-linejoin:round;">
</g>
<g style="fill:#FFFFFF; fill-opacity:1.0; 
stroke:#FFFFFF; stroke-width:0; stroke-opacity:1; 
stroke-linecap:round; stroke-linejoin:round;">
<circle cx="17092.5" cy="13905.5" r="197" /> 
</g>
<g style="fill:#FFFFFF; fill-opacity:1.0; 
stroke:#FFFFFF; stroke-width:39.3701; stroke-opacity:1; 
stroke-linecap:round; stroke-linejoin:round;">
</g>
<g style="fill:#FFFFFF; fill-opacity:1.0; 
stroke:#FFFFFF; stroke-width:0; stroke-opacity:1; 
stroke-linecap:round; stroke-linejoin:round;">
<circle cx="17092.5" cy="12905.5" r="197" /> 
</g>
<g style="fill:#FFFFFF; fill-opacity:1.0; 
stroke:#FFFFFF; stroke-width:39.3701; stroke-opacity:1; 
stroke-linecap:round; stroke-linejoin:round;">
</g>
<g style="fill:#FFFFFF; fill-opacity:1.0; 
stroke:#FFFFFF; stroke-width:0; stroke-opacity:1; 
stroke-linecap:round; stroke-linejoin:round;">
<circle cx="5944.61" cy="5039.07" r="197" /> 
</g>
<g style="fill:#FFFFFF; fill-opacity:1.0; 
stroke:#FFFFFF; stroke-width:39.3701; stroke-opacity:1; 
stroke-linecap:round; stroke-linejoin:round;">
</g>
<g style="fill:#FFFFFF; fill-opacity:1.0; 
stroke:#FFFFFF; stroke-width:0; stroke-opacity:1; 
stroke-linecap:round; stroke-linejoin:round;">
<circle cx="5944.61" cy="9764.07" r="197" /> 
</g>
<g style="fill:#FFFFFF; fill-opacity:1.0; 
stroke:#FFFFFF; stroke-width:39.3701; stroke-opacity:1; 
stroke-linecap:round; stroke-linejoin:round;">
</g>
<g style="fill:#FFFFFF; fill-opacity:1.0; 
stroke:#FFFFFF; stroke-width:0; stroke-opacity:1; 
stroke-linecap:round; stroke-linejoin:round;">
<circle cx="10787.6" cy="9764.07" r="197" /> 
</g>
<g style="fill:#FFFFFF; fill-opacity:1.0; 
stroke:#FFFFFF; stroke-width:39.3701; stroke-opacity:1; 
stroke-linecap:round; stroke-linejoin:round;">
</g>
<g style="fill:#FFFFFF; fill-opacity:1.0; 
stroke:#FFFFFF; stroke-width:0; stroke-opacity:1; 
stroke-linecap:round; stroke-linejoin:round;">
<circle cx="11574.6" cy="7402.07" r="197" /> 
</g>
<g style="fill:#FFFFFF; fill-opacity:1.0; 
stroke:#FFFFFF; stroke-width:39.3701; stroke-opacity:1; 
stroke-linecap:round; stroke-linejoin:round;">
</g>
<g style="fill:#FFFFFF; fill-opacity:1.0; 
stroke:#FFFFFF; stroke-width:0; stroke-opacity:1; 
stroke-linecap:round; stroke-linejoin:round;">
<circle cx="10787.6" cy="5039.07" r="197" /> 
</g>
<g style="fill:#FFFFFF; fill-opacity:1.0; 
stroke:#FFFFFF; stroke-width:39.3701; stroke-opacity:1; 
stroke-linecap:round; stroke-linejoin:round;">
</g>
<g style="fill:#FFFFFF; fill-opacity:1.0; 
stroke:#FFFFFF; stroke-width:0; stroke-opacity:1; 
stroke-linecap:round; stroke-linejoin:round;">
<circle cx="15592.5" cy="20155.5" r="197" /> 
</g>
<g style="fill:#FFFFFF; fill-opacity:1.0; 
stroke:#FFFFFF; stroke-width:39.3701; stroke-opacity:1; 
stroke-linecap:round; stroke-linejoin:round;">
</g>
<g style="fill:#FFFFFF; fill-opacity:1.0; 
stroke:#FFFFFF; stroke-width:0; stroke-opacity:1; 
stroke-linecap:round; stroke-linejoin:round;">
<circle cx="14592.5" cy="20155.5" r="197" /> 
</g>
<g style="fill:#FFFFFF; fill-opacity:1.0; 
stroke:#FFFFFF; stroke-width:39.3701; stroke-opacity:1; 
stroke-linecap:round; stroke-linejoin:round;">
</g>
<g style="fill:#FFFFFF; fill-opacity:1.0; 
stroke:#FFFFFF; stroke-width:0; stroke-opacity:1; 
stroke-linecap:round; stroke-linejoin:round;">
<circle cx="13592.5" cy="20155.5" r="197" /> 
</g>
<g style="fill:#FFFFFF; fill-opacity:1.0; 
stroke:#FFFFFF; stroke-width:39.3701; stroke-opacity:1; 
stroke-linecap:round; stroke-linejoin:round;">
</g>
<g style="fill:#FFFFFF; fill-opacity:1.0; 
stroke:#FFFFFF; stroke-width:0; stroke-opacity:1; 
stroke-linecap:round; stroke-linejoin:round;">
<circle cx="12592.5" cy="20155.5" r="197" /> 
</g>
<g style="fill:#FFFFFF; fill-opacity:1.0; 
stroke:#FFFFFF; stroke-width:39.3701; stroke-opacity:1; 
stroke-linecap:round; stroke-linejoin:round;">
</g>
<g style="fill:#FFFFFF; fill-opacity:1.0; 
stroke:#FFFFFF; stroke-width:0; stroke-opacity:1; 
stroke-linecap:round; stroke-linejoin:round;">
<circle cx="11592.5" cy="20155.5" r="197" /> 
</g>
<g style="fill:#FFFFFF; fill-opacity:1.0; 
stroke:#FFFFFF; stroke-width:39.3701; stroke-opacity:1; 
stroke-linecap:round; stroke-linejoin:round;">
</g>
<g style="fill:#FFFFFF; fill-opacity:1.0; 
stroke:#FFFFFF; stroke-width:0; stroke-opacity:1; 
stroke-linecap:round; stroke-linejoin:round;">
<circle cx="7092.52" cy="17405.5" r="197" /> 
</g>
<g style="fill:#FFFFFF; fill-opacity:1.0; 
stroke:#FFFFFF; stroke-width:39.3701; stroke-opacity:1; 
stroke-linecap:round; stroke-linejoin:round;">
</g>
<g style="fill:#FFFFFF; fill-opacity:1.0; 
stroke:#FFFFFF; stroke-width:0; stroke-opacity:1; 
stroke-linecap:round; stroke-linejoin:round;">
<circle cx="6092.52" cy="17405.5" r="197" /> 
</g>
<g style="fill:#FFFFFF; fill-opacity:1.0; 
stroke:#FFFFFF; stroke-width:39.3701; stroke-opacity:1; 
stroke-linecap:round; stroke-linejoin:round;">
</g>
<g style="fill:#FFFFFF; fill-opacity:1.0; 
stroke:#FFFFFF; stroke-width:0; stroke-opacity:1; 
stroke-linecap:round; stroke-linejoin:round;">
<circle cx="9342.52" cy="17405.5" r="197" /> 
</g>
<g style="fill:#FFFFFF; fill-opacity:1.0; 
stroke:#FFFFFF; stroke-width:39.3701; stroke-opacity:1; 
stroke-linecap:round; stroke-linejoin:round;">
</g>
<g style="fill:#FFFFFF; fill-opacity:1.0; 
stroke:#FFFFFF; stroke-width:0; stroke-opacity:1; 
stroke-linecap:round; stroke-linejoin:round;">
<circle cx="10342.5" cy="17405.5" r="197" /> 
</g>
<g style="fill:#FFFFFF; fill-opacity:1.0; 
stroke:#FFFFFF; stroke-width:39.3701; stroke-opacity:1; 
stroke-linecap:round; stroke-linejoin:round;">
</g>
<g style="fill:#FFFFFF; fill-opacity:1.0; 
stroke:#FFFFFF; stroke-width:0; stroke-opacity:1; 
stroke-linecap:round; stroke-linejoin:round;">
<circle cx="6055.52" cy="20905.5" r="344.5" /> 
</g>
<g style="fill:#FFFFFF; fill-opacity:1.0; 
stroke:#FFFFFF; stroke-width:39.3701; stroke-opacity:1; 
stroke-linecap:round; stroke-linejoin:round;">
</g>
<g style="fill:#FFFFFF; fill-opacity:1.0; 
stroke:#FFFFFF; stroke-width:0; stroke-opacity:1; 
stroke-linecap:round; stroke-linejoin:round;">
<circle cx="7629.52" cy="20905.5" r="344.5" /> 
</g>
<g style="fill:#FFFFFF; fill-opacity:1.0; 
stroke:#FFFFFF; stroke-width:39.3701; stroke-opacity:1; 
stroke-linecap:round; stroke-linejoin:round;">
</g>
<g style="fill:#FFFFFF; fill-opacity:1.0; 
stroke:#FFFFFF; stroke-width:0; stroke-opacity:1; 
stroke-linecap:round; stroke-linejoin:round;">
<circle cx="12129.5" cy="12905.5" r="344.5" /> 
</g>
<g style="fill:#FFFFFF; fill-opacity:1.0; 
stroke:#FFFFFF; stroke-width:39.3701; stroke-opacity:1; 
stroke-linecap:round; stroke-linejoin:round;">
</g>
<g style="fill:#FFFFFF; fill-opacity:1.0; 
stroke:#FFFFFF; stroke-width:0; stroke-opacity:1; 
stroke-linecap:round; stroke-linejoin:round;">
<circle cx="10555.5" cy="12905.5" r="344.5" /> 
</g>
<g style="fill:#FFFFFF; fill-opacity:1.0; 
stroke:#FFFFFF; stroke-width:39.3701; stroke-opacity:1; 
stroke-linecap:round; stroke-linejoin:round;">
</g>
<g style="fill:#FFFFFF; fill-opacity:1.0; 
stroke:#FFFFFF; stroke-width:0; stroke-opacity:1; 
stroke-linecap:round; stroke-linejoin:round;">
<circle cx="16629.5" cy="3905.51" r="344.5" /> 
</g>
<g style="fill:#FFFFFF; fill-opacity:1.0; 
stroke:#FFFFFF; stroke-width:39.3701; stroke-opacity:1; 
stroke-linecap:round; stroke-linejoin:round;">
</g>
<g style="fill:#FFFFFF; fill-opacity:1.0; 
stroke:#FFFFFF; stroke-width:0; stroke-opacity:1; 
stroke-linecap:round; stroke-linejoin:round;">
<circle cx="15055.5" cy="3905.51" r="344.5" /> 
</g>
<g style="fill:#FFFFFF; fill-opacity:1.0; 
stroke:#FFFFFF; stroke-width:39.3701; stroke-opacity:1; 
stroke-linecap:round; stroke-linejoin:round;">
</g>
<g style="fill:#FFFFFF; fill-opacity:1.0; 
stroke:#FFFFFF; stroke-width:0; stroke-opacity:1; 
stroke-linecap:round; stroke-linejoin:round;">
<circle cx="13992.5" cy="9055.51" r="197" /> 
</g>
<g style="fill:#FFFFFF; fill-opacity:1.0; 
stroke:#FFFFFF; stroke-width:39.3701; stroke-opacity:1; 
stroke-linecap:round; stroke-linejoin:round;">
</g>
<g style="fill:#FFFFFF; fill-opacity:1.0; 
stroke:#FFFFFF; stroke-width:0; stroke-opacity:1; 
stroke-linecap:round; stroke-linejoin:round;">
<circle cx="14992.5" cy="9055.51" r="197" /> 
</g>
<g style="fill:#FFFFFF; fill-opacity:1.0; 
stroke:#FFFFFF; stroke-width:39.3701; stroke-opacity:1; 
stroke-linecap:round; stroke-linejoin:round;">
</g>
<g style="fill:#FFFFFF; fill-opacity:1.0; 
stroke:#FFFFFF; stroke-width:0; stroke-opacity:1; 
stroke-linecap:round; stroke-linejoin:round;">
<circle cx="15992.5" cy="9055.51" r="197" /> 
</g>
<g style="fill:#FFFFFF; fill-opacity:1.0; 
stroke:#FFFFFF; stroke-width:39.3701; stroke-opacity:1; 
stroke-linecap:round; stroke-linejoin:round;">
</g>
<g style="fill:#FFFFFF; fill-opacity:1.0; 
stroke:#FFFFFF; stroke-width:0; stroke-opacity:1; 
stroke-linecap:round; stroke-linejoin:round;">
<circle cx="16592.5" cy="18155.5" r="197" /> 
</g>
<g style="fill:#FFFFFF; fill-opacity:1.0; 
stroke:#FFFFFF; stroke-width:39.3701; stroke-opacity:1; 
stroke-linecap:round; stroke-linejoin:round;">
</g>
<g style="fill:#FFFFFF; fill-opacity:1.0; 
stroke:#FFFFFF; stroke-width:0; stroke-opacity:1; 
stroke-linecap:round; stroke-linejoin:round;">
<circle cx="16592.5" cy="17155.5" r="197" /> 
</g>
<g style="fill:#FFFFFF; fill-opacity:1.0; 
stroke:#FFFFFF; stroke-width:39.3701; stroke-opacity:1; 
stroke-linecap:round; stroke-linejoin:round;">
</g>
<g style="fill:#FFFFFF; fill-opacity:1.0; 
stroke:#FFFFFF; stroke-width:0; stroke-opacity:1; 
stroke-linecap:round; stroke-linejoin:round;">
<circle cx="16592.5" cy="16155.5" r="197" /> 
</g>
<g style="fill:#FFFFFF; fill-opacity:1.0; 
stroke:#FFFFFF; stroke-width:39.3701; stroke-opacity:1; 
stroke-linecap:round; stroke-linejoin:round;">
</g>
<g style="fill:#FFFFFF; fill-opacity:1.0; 
stroke:#FFFFFF; stroke-width:0; stroke-opacity:1; 
stroke-linecap:round; stroke-linejoin:round;">
<circle cx="16592.5" cy="15155.5" r="197" /> 
</g>
<g style="fill:#FFFFFF; fill-opacity:1.0; 
stroke:#FFFFFF; stroke-width:39.3701; stroke-opacity:1; 
stroke-linecap:round; stroke-linejoin:round;">
</g>
<g style="fill:#FFFFFF; fill-opacity:1.0; 
stroke:#FFFFFF; stroke-width:0; stroke-opacity:1; 
stroke-linecap:round; stroke-linejoin:round;">
<circle cx="13592.5" cy="15155.5" r="197" /> 
</g>
<g style="fill:#FFFFFF; fill-opacity:1.0; 
stroke:#FFFFFF; stroke-width:39.3701; stroke-opacity:1; 
stroke-linecap:round; stroke-linejoin:round;">
</g>
<g style="fill:#FFFFFF; fill-opacity:1.0; 
stroke:#FFFFFF; stroke-width:0; stroke-opacity:1; 
stroke-linecap:round; stroke-linejoin:round;">
<circle cx="13592.5" cy="16155.5" r="197" /> 
</g>
<g style="fill:#FFFFFF; fill-opacity:1.0; 
stroke:#FFFFFF; stroke-width:39.3701; stroke-opacity:1; 
stroke-linecap:round; stroke-linejoin:round;">
</g>
<g style="fill:#FFFFFF; fill-opacity:1.0; 
stroke:#FFFFFF; stroke-width:0; stroke-opacity:1; 
stroke-linecap:round; stroke-linejoin:round;">
<circle cx="13592.5" cy="17155.5" r="197" /> 
</g>
<g style="fill:#FFFFFF; fill-opacity:1.0; 
stroke:#FFFFFF; stroke-width:39.3701; stroke-opacity:1; 
stroke-linecap:round; stroke-linejoin:round;">
</g>
<g style="fill:#FFFFFF; fill-opacity:1.0; 
stroke:#FFFFFF; stroke-width:0; stroke-opacity:1; 
stroke-linecap:round; stroke-linejoin:round;">
<circle cx="13592.5" cy="18155.5" r="197" /> 
</g>
<g style="fill:#FFFFFF; fill-opacity:1.0; 
stroke:#FFFFFF; stroke-width:39.3701; stroke-opacity:1; 
stroke-linecap:round; stroke-linejoin:round;">
</g>
<g style="fill:#FFFFFF; fill-opacity:1.0; 
stroke:#FFFFFF; stroke-width:0; stroke-opacity:1; 
stroke-linecap:round; stroke-linejoin:round;">
<circle cx="7486.52" cy="12155.5" r="197" /> 
</g>
<g style="fill:#FFFFFF; fill-opacity:1.0; 
stroke:#FFFFFF; stroke-width:39.3701; stroke-opacity:1; 
stroke-linecap:round; stroke-linejoin:round;">
</g>
<g style="fill:#FFFFFF; fill-opacity:1.0; 
stroke:#FFFFFF; stroke-width:0; stroke-opacity:1; 
stroke-linecap:round; stroke-linejoin:round;">
<circle cx="6698.52" cy="12155.5" r="197" /> 
</g>
<g style="fill:#FFFFFF; fill-opacity:1.0; 
stroke:#FFFFFF; stroke-width:39.3701; stroke-opacity:1; 
stroke-linecap:round; stroke-linejoin:round;">
</g>
<g style="fill:#FFFFFF; fill-opacity:1.0; 
stroke:#FFFFFF; stroke-width:0; stroke-opacity:1; 
stroke-linecap:round; stroke-linejoin:round;">
<circle cx="12842.5" cy="8980.51" r="197" /> 
</g>
<g style="fill:#FFFFFF; fill-opacity:1.0; 
stroke:#FFFFFF; stroke-width:39.3701; stroke-opacity:1; 
stroke-linecap:round; stroke-linejoin:round;">
</g>
<g style="fill:#FFFFFF; fill-opacity:1.0; 
stroke:#FFFFFF; stroke-width:0; stroke-opacity:1; 
stroke-linecap:round; stroke-linejoin:round;">
<circle cx="12842.5" cy="5830.51" r="197" /> 
</g>
<g style="fill:#FFFFFF; fill-opacity:1.0; 
stroke:#FFFFFF; stroke-width:39.3701; stroke-opacity:1; 
stroke-linecap:round; stroke-linejoin:round;">
</g>
<g style="fill:#000000; fill-opacity:1.0; 
stroke:#000000; stroke-width:39.3701; stroke-opacity:1; 
stroke-linecap:round; stroke-linejoin:round;">
</g> 
</svg>
